#N canvas 402 48 464 697 10;
#X obj 228 115 samplerate~;
#X obj 228 94 loadbang;
#X obj 183 187 /~ 44100;
#X obj 183 38 inlet~ cutoff;
#X obj 183 163 clip~ 20 22050;
#X obj 316 38 inlet~ resonance;
#X obj 316 139 clip~ 0 1;
#X obj 48 38 inlet~;
#X obj 264 139 * 0.49;
#X obj 235 322 +~ 1;
#X obj 183 346 *~ -2;
#X obj 183 373 /~;
#X obj 183 399 *~ -1;
#X obj 66 245 sig~ 1;
#X obj 210 322 -~;
#X obj 220 372 /~;
#X obj 183 426 *~;
#X obj 183 450 +~;
#X obj 93 551 *~ 0.5;
#X obj 183 497 sqrt~;
#X obj 183 475 abs~;
#X obj 183 523 *~ 0.5;
#X obj 51 579 cpole~;
#X obj 51 607 cpole~;
#X obj 183 551 *~ -1;
#X obj 51 523 czero~;
#X obj 51 551 czero~;
#X obj 66 450 /~;
#X obj 51 475 *~;
#X obj 66 399 -~;
#X obj 66 426 *~ 0.5;
#X obj 73 497 sig~ -1;
#X obj 220 399 *~ -4;
#X obj 183 245 cos~;
#X obj 225 245 -~ 0.25;
#X obj 225 267 cos~;
#X obj 51 635 outlet~;
#X obj 225 298 /~;
#X obj 316 219 +~ 100;
#X obj 316 245 dbtorms~;
#X obj 316 194 *~ 25;
#X connect 0 0 2 1;
#X connect 0 0 8 0;
#X connect 1 0 0 0;
#X connect 2 0 33 0;
#X connect 2 0 34 0;
#X connect 3 0 4 0;
#X connect 4 0 2 0;
#X connect 5 0 6 0;
#X connect 6 0 40 0;
#X connect 7 0 28 0;
#X connect 8 0 4 2;
#X connect 9 0 11 1;
#X connect 9 0 15 1;
#X connect 9 0 27 1;
#X connect 10 0 11 0;
#X connect 11 0 12 0;
#X connect 12 0 16 0;
#X connect 12 0 16 1;
#X connect 12 0 18 0;
#X connect 13 0 14 0;
#X connect 13 0 29 0;
#X connect 14 0 15 0;
#X connect 15 0 32 0;
#X connect 16 0 17 0;
#X connect 17 0 20 0;
#X connect 18 0 22 2;
#X connect 18 0 23 2;
#X connect 19 0 21 0;
#X connect 20 0 19 0;
#X connect 21 0 22 3;
#X connect 21 0 24 0;
#X connect 22 0 23 0;
#X connect 22 1 23 1;
#X connect 23 0 36 0;
#X connect 24 0 23 3;
#X connect 25 0 26 0;
#X connect 25 1 26 1;
#X connect 26 0 22 0;
#X connect 26 1 22 1;
#X connect 27 0 28 1;
#X connect 28 0 25 0;
#X connect 29 0 30 0;
#X connect 30 0 27 0;
#X connect 31 0 25 2;
#X connect 31 0 26 2;
#X connect 32 0 17 1;
#X connect 33 0 10 0;
#X connect 33 0 29 1;
#X connect 34 0 35 0;
#X connect 35 0 37 0;
#X connect 37 0 9 0;
#X connect 37 0 14 1;
#X connect 38 0 39 0;
#X connect 39 0 37 1;
#X connect 40 0 38 0;
