#N canvas 326 48 603 736 12;
#X obj 194 621 dac~ 1 2;
#X obj 214 301 osc~;
#X obj 168 302 osc~;
#X obj 183 135 r playNote;
#X obj 183 158 unpack f f;
#X obj 303 367 vline~;
#X obj 303 390 *~;
#X obj 191 477 *~;
#X obj 183 210 mtof~;
#X obj 183 186 vline~;
#X msg 303 344 \$1 5 \, 0 500 5;
#X msg 183 91 48 1;
#X msg 249 92 60 1;
#X msg 306 91 65 1;
#X obj 214 324 *~ 0.1;
#X msg 360 91 84 1;
#X obj 188 424 lop~ 5000;
#X obj 213 264 *~ 2;
#X obj 386 135 r filterCutoff;
#X text 395 162 should lerp in js;
#X text 396 243 should lerp in js;
#X obj 387 216 r ampDecay;
#X connect 1 0 14 0;
#X connect 2 0 16 0;
#X connect 3 0 4 0;
#X connect 4 0 9 0;
#X connect 4 1 10 0;
#X connect 5 0 6 0;
#X connect 5 0 6 1;
#X connect 6 0 7 1;
#X connect 7 0 0 0;
#X connect 7 0 0 1;
#X connect 8 0 2 0;
#X connect 8 0 17 0;
#X connect 9 0 8 0;
#X connect 10 0 5 0;
#X connect 11 0 4 0;
#X connect 12 0 4 0;
#X connect 13 0 4 0;
#X connect 14 0 16 0;
#X connect 15 0 4 0;
#X connect 16 0 7 0;
#X connect 17 0 1 0;
