#N canvas 73 85 1300 717 12;
#X obj 94 642 dac~ 1 2;
#N canvas 127 336 1163 542 delay 0;
#X obj 313 390 +~;
#X obj 313 419 delwrite~ \$0-dl 4000;
#X obj 188 37 inlet~;
#X obj 191 431 outlet~;
#X obj 356 326 delread~ \$0-dl 348;
#X text 494 327 tempo * 2;
#X text 365 276 delay amount;
#X text 417 363 feedback;
#X obj 308 275 *~ 0.4;
#X obj 356 362 *~ 0.3;
#X connect 0 0 1 0;
#X connect 2 0 3 0;
#X connect 2 0 8 0;
#X connect 4 0 3 0;
#X connect 4 0 9 0;
#X connect 8 0 0 0;
#X connect 9 0 0 1;
#X restore 94 445 pd delay;
#N canvas 303 225 986 653 reverb 0;
#X obj 691 281 * 0.28;
#X obj 692 304 + 0.7;
#X obj 691 237 - 1;
#X obj 691 258 abs;
#X obj 519 288 * 44100;
#X obj 467 195 * 0.9;
#X obj 467 219 + 0.1;
#X obj 467 243 pow 4;
#X obj 690 215 pow 2;
#X obj 690 192 -;
#N canvas 0 22 522 372 comb-1 0;
#X obj 154 146 lop~ 20000;
#X obj 154 169 *~ 0.5;
#X obj 72 37 inlet~;
#X obj 67 234 outlet~;
#X obj 216 112 inlet;
#X obj 259 112 inlet;
#X obj 155 61 delread~ \$0-rev1 25.3061;
#X obj 152 208 delwrite~ \$0-rev1 26;
#X connect 0 0 1 0;
#X connect 1 0 3 0;
#X connect 1 0 7 0;
#X connect 2 0 7 0;
#X connect 4 0 0 1;
#X connect 5 0 1 1;
#X connect 6 0 0 0;
#X restore 159 373 pd comb-1;
#N canvas 549 236 494 344 comb-2 0;
#X obj 174 127 lop~ 20000;
#X obj 174 150 *~ 0.5;
#X obj 90 36 inlet~;
#X obj 88 231 outlet~;
#X obj 236 93 inlet;
#X obj 278 93 inlet;
#X obj 169 64 delread~ \$0-rev2 26.9388;
#X obj 171 202 delwrite~ \$0-rev2 27;
#X connect 0 0 1 0;
#X connect 1 0 3 0;
#X connect 1 0 7 0;
#X connect 2 0 7 0;
#X connect 4 0 0 1;
#X connect 5 0 1 1;
#X connect 6 0 0 0;
#X restore 221 373 pd comb-2;
#N canvas 400 75 490 340 comb-3 0;
#X obj 141 136 lop~ 20000;
#X obj 139 165 *~ 0.5;
#X obj 57 43 inlet~;
#X obj 57 248 outlet~;
#X obj 203 102 inlet;
#X obj 243 102 inlet;
#X obj 117 67 delread~ \$0-rev3 28.9569;
#X obj 137 210 delwrite~ \$0-rev3 29;
#X connect 0 0 1 0;
#X connect 1 0 3 0;
#X connect 1 0 7 0;
#X connect 2 0 7 0;
#X connect 4 0 0 1;
#X connect 5 0 1 1;
#X connect 6 0 0 0;
#X restore 282 373 pd comb-3;
#N canvas 746 118 494 344 comb-4 0;
#X obj 182 137 lop~ 20000;
#X obj 182 160 *~ 0.5;
#X obj 90 36 inlet~;
#X obj 88 231 outlet~;
#X obj 244 103 inlet;
#X obj 281 103 inlet;
#X obj 175 73 delread~ \$0-rev4 30.7483;
#X obj 172 206 delwrite~ \$0-rev4 31;
#X connect 0 0 1 0;
#X connect 1 0 3 0;
#X connect 1 0 7 0;
#X connect 2 0 7 0;
#X connect 4 0 0 1;
#X connect 5 0 1 1;
#X connect 6 0 0 0;
#X restore 344 373 pd comb-4;
#N canvas 805 59 474 324 comb-5 0;
#X obj 134 129 lop~ 20000;
#X obj 134 152 *~ 0.5;
#X obj 90 36 inlet~;
#X obj 88 231 outlet~;
#X obj 196 98 inlet;
#X obj 234 97 inlet;
#X obj 135 61 delread~ \$0-rev5 34.2449;
#X obj 132 203 delwrite~ \$0-rev5 35;
#X connect 0 0 1 0;
#X connect 1 0 3 0;
#X connect 1 0 7 0;
#X connect 2 0 7 0;
#X connect 4 0 0 1;
#X connect 5 0 1 1;
#X connect 6 0 0 0;
#X restore 406 373 pd comb-5;
#N canvas 702 107 474 324 comb-6 0;
#X obj 176 121 lop~ 20000;
#X obj 176 144 *~ 0.5;
#X obj 90 36 inlet~;
#X obj 88 231 outlet~;
#X obj 235 95 inlet;
#X obj 277 95 inlet;
#X obj 238 54 delread~ \$0-rev6 33.8095;
#X obj 177 196 delwrite~ \$0-rev6 34;
#X connect 0 0 1 0;
#X connect 1 0 3 0;
#X connect 1 0 7 0;
#X connect 2 0 7 0;
#X connect 4 0 0 1;
#X connect 5 0 1 1;
#X connect 6 0 0 0;
#X restore 468 373 pd comb-6;
#N canvas 742 153 474 324 comb-7 0;
#X obj 131 135 lop~ 20000;
#X obj 131 158 *~ 0.5;
#X obj 80 50 inlet~;
#X obj 88 231 outlet~;
#X obj 194 105 inlet;
#X obj 232 102 inlet;
#X obj 194 70 delread~ \$0-rev7 35.7596;
#X obj 129 207 delwrite~ \$0-rev7 36;
#X connect 0 0 1 0;
#X connect 1 0 3 0;
#X connect 1 0 7 0;
#X connect 2 0 7 0;
#X connect 4 0 0 1;
#X connect 5 0 1 1;
#X connect 6 0 0 0;
#X restore 529 373 pd comb-7;
#N canvas 731 107 478 328 comb-8 0;
#X obj 140 134 lop~ 20000;
#X obj 140 157 *~ 0.5;
#X obj 90 36 inlet~;
#X obj 88 231 outlet~;
#X obj 201 104 inlet;
#X obj 243 104 inlet;
#X obj 204 67 delread~ \$0-rev8 36.6667;
#X obj 140 205 delwrite~ \$0-rev8 26;
#X connect 0 0 1 0;
#X connect 1 0 3 0;
#X connect 1 0 7 0;
#X connect 2 0 7 0;
#X connect 4 0 0 1;
#X connect 5 0 1 1;
#X connect 6 0 0 0;
#X restore 591 373 pd comb-8;
#N canvas 588 127 648 562 allpass-1 0;
#X obj 186 65 inlet~;
#X obj 245 422 *~ 0.5;
#X obj 175 490 outlet~;
#X obj 168 391 *~ -1;
#X obj 437 474 delwrite~ \$0-reva-1 13;
#X obj 213 390 delread~ \$0-reva-1 12.6077;
#X connect 0 0 3 0;
#X connect 0 0 4 0;
#X connect 1 0 4 0;
#X connect 3 0 2 0;
#X connect 5 0 1 0;
#X connect 5 0 2 0;
#X restore 159 435 pd allpass-1;
#N canvas 0 22 640 554 allpass-2 0;
#X obj 186 65 inlet~;
#X obj 245 422 *~ 0.5;
#X obj 175 490 outlet~;
#X obj 168 391 *~ -1;
#X obj 213 389 delread~ \$0-reva-2 10;
#X obj 439 474 delwrite~ \$0-reva-2 11;
#X connect 0 0 3 0;
#X connect 0 0 5 0;
#X connect 1 0 5 0;
#X connect 3 0 2 0;
#X connect 4 0 1 0;
#X connect 4 0 2 0;
#X restore 159 455 pd allpass-2;
#N canvas 0 22 644 558 allpass-3 0;
#X obj 186 65 inlet~;
#X obj 245 422 *~ 0.5;
#X obj 175 490 outlet~;
#X obj 168 391 *~ -1;
#X obj 213 389 delread~ \$0-reva-3 7.77324;
#X obj 437 474 delwrite~ \$0-reva-3 8;
#X connect 0 0 3 0;
#X connect 0 0 5 0;
#X connect 1 0 5 0;
#X connect 3 0 2 0;
#X connect 4 0 1 0;
#X connect 4 0 2 0;
#X restore 159 476 pd allpass-3;
#N canvas 0 22 636 550 allpass-4 0;
#X obj 186 65 inlet~;
#X obj 245 422 *~ 0.5;
#X obj 175 490 outlet~;
#X obj 168 391 *~ -1;
#X obj 214 389 delread~ \$0-reva-4 5.10204;
#X obj 437 474 delwrite~ \$0-reva-4 6;
#X connect 0 0 3 0;
#X connect 0 0 5 0;
#X connect 1 0 5 0;
#X connect 3 0 2 0;
#X connect 4 0 1 0;
#X connect 4 0 2 0;
#X restore 159 496 pd allpass-4;
#X obj 159 415 *~ 0.25;
#X msg 690 168 1 \$1;
#X obj 159 319 *~ 0.1;
#X obj 558 264 samplerate~;
#X obj 481 17 loadbang;
#X obj 467 172 -;
#X msg 467 148 1 \$1;
#X obj 157 288 *~;
#X obj 826 197 line~;
#X msg 828 173 \$1 10;
#X obj 123 577 outlet~;
#X obj 131 207 inlet~;
#X obj 482 96 unpack f f f;
#X text 510 147 brigntness;
#X text 691 141 roomsize;
#X text 834 146 reverb amount;
#X obj 481 40 t b b;
#X msg 481 70 0.5 0.5 0.5;
#X connect 0 0 1 0;
#X connect 1 0 17 2;
#X connect 1 0 16 2;
#X connect 1 0 10 2;
#X connect 1 0 11 2;
#X connect 1 0 12 2;
#X connect 1 0 13 2;
#X connect 1 0 14 2;
#X connect 1 0 15 2;
#X connect 2 0 3 0;
#X connect 3 0 0 0;
#X connect 4 0 10 1;
#X connect 4 0 11 1;
#X connect 4 0 12 1;
#X connect 4 0 13 1;
#X connect 4 0 14 1;
#X connect 4 0 15 1;
#X connect 4 0 16 1;
#X connect 4 0 17 1;
#X connect 5 0 6 0;
#X connect 6 0 7 0;
#X connect 7 0 4 0;
#X connect 8 0 2 0;
#X connect 9 0 8 0;
#X connect 10 0 22 0;
#X connect 11 0 22 0;
#X connect 12 0 22 0;
#X connect 13 0 22 0;
#X connect 14 0 22 0;
#X connect 15 0 22 0;
#X connect 16 0 22 0;
#X connect 17 0 22 0;
#X connect 18 0 19 0;
#X connect 19 0 20 0;
#X connect 20 0 21 0;
#X connect 21 0 32 0;
#X connect 22 0 18 0;
#X connect 23 0 9 0;
#X connect 24 0 10 0;
#X connect 24 0 11 0;
#X connect 24 0 12 0;
#X connect 24 0 13 0;
#X connect 24 0 14 0;
#X connect 24 0 15 0;
#X connect 24 0 16 0;
#X connect 24 0 17 0;
#X connect 25 0 4 1;
#X connect 26 0 38 0;
#X connect 27 0 5 0;
#X connect 28 0 27 0;
#X connect 29 0 24 0;
#X connect 30 0 29 1;
#X connect 31 0 30 0;
#X connect 33 0 29 0;
#X connect 33 0 32 0;
#X connect 34 0 28 0;
#X connect 34 1 23 0;
#X connect 34 2 31 0;
#X connect 38 0 39 0;
#X connect 38 1 25 0;
#X connect 39 0 34 0;
#X restore 93 479 pd reverb;
#X text 43 73 delay tempo in ms: 174;
#X text 185 125 receivers from JS;
#X obj 99 581 *~ 0.5;
#X obj 835 234 + 0.2;
#X obj 835 211 * 0.6;
#X obj 723 234 + 0.2;
#X obj 723 211 * 0.6;
#X obj 446 22 loadbang;
#X obj 723 257 clip 0.2 0.8;
#X obj 835 257 clip 0.2 0.8;
#X obj 632 192 r note0;
#X obj 722 190 r env0;
#X obj 835 188 r dec0;
#X obj 723 281 s \$0-env0;
#X obj 835 282 s \$0-dec0;
#N canvas 229 73 546 729 synth0 0;
#X obj 270 374 mtof~;
#X obj 295 298 * 120;
#X obj 269 323 *~ 0;
#X obj 180 600 *~;
#X obj 270 350 +~ 40;
#X obj 177 51 unpack f f;
#X obj 180 692 outlet~;
#X obj 248 244 line~;
#X obj 320 201 pack 0 f;
#X obj 272 177 pack 0 15;
#X obj 373 154 pow 4;
#X obj 373 131 + 0.2;
#X obj 373 108 * 0.8;
#X obj 373 176 * 4000;
#X obj 310 148 del 2;
#X obj 245 78 t f b;
#X obj 245 200 pack \$1 2;
#X obj 153 323 mtof~;
#X obj 176 535 lpf2~;
#X obj 233 507 sig~ 0.1;
#X obj 153 356 blsaw~ 40;
#X obj 280 641 env~;
#X obj 280 691 switch~;
#X obj 280 664 != 0;
#X obj 321 664 1;
#X obj 177 24 r \$0-note0;
#X obj 373 83 r \$0-dec0;
#X obj 295 274 r \$0-env0;
#X connect 0 0 18 1;
#X connect 1 0 2 1;
#X connect 2 0 4 0;
#X connect 3 0 6 0;
#X connect 3 0 21 0;
#X connect 4 0 0 0;
#X connect 5 0 17 0;
#X connect 5 1 15 0;
#X connect 7 0 2 0;
#X connect 7 0 3 1;
#X connect 8 0 7 0;
#X connect 9 0 7 0;
#X connect 10 0 13 0;
#X connect 11 0 10 0;
#X connect 12 0 11 0;
#X connect 13 0 8 1;
#X connect 14 0 8 0;
#X connect 15 0 16 0;
#X connect 15 1 9 0;
#X connect 15 1 14 0;
#X connect 15 1 24 0;
#X connect 16 0 7 0;
#X connect 17 0 20 0;
#X connect 18 0 3 0;
#X connect 19 0 18 2;
#X connect 20 0 18 0;
#X connect 21 0 23 0;
#X connect 23 0 22 0;
#X connect 24 0 22 0;
#X connect 25 0 5 0;
#X connect 26 0 12 0;
#X connect 27 0 1 0;
#X restore 58 371 pd synth0;
#N canvas 229 73 546 729 synth1 0;
#X obj 270 374 mtof~;
#X obj 295 298 * 120;
#X obj 269 323 *~ 0;
#X obj 180 600 *~;
#X obj 270 350 +~ 40;
#X obj 177 51 unpack f f;
#X obj 180 692 outlet~;
#X obj 248 244 line~;
#X obj 320 201 pack 0 f;
#X obj 272 177 pack 0 15;
#X obj 373 154 pow 4;
#X obj 373 131 + 0.2;
#X obj 373 108 * 0.8;
#X obj 373 176 * 4000;
#X obj 310 148 del 2;
#X obj 245 78 t f b;
#X obj 245 200 pack \$1 2;
#X obj 153 323 mtof~;
#X obj 176 535 lpf2~;
#X obj 233 507 sig~ 0.1;
#X obj 153 356 blsaw~ 40;
#X obj 280 641 env~;
#X obj 280 691 switch~;
#X obj 280 664 != 0;
#X obj 321 664 1;
#X obj 177 24 r \$0-note1;
#X obj 373 83 r \$0-dec1;
#X obj 295 274 r \$0-env1;
#X connect 0 0 18 1;
#X connect 1 0 2 1;
#X connect 2 0 4 0;
#X connect 3 0 6 0;
#X connect 3 0 21 0;
#X connect 4 0 0 0;
#X connect 5 0 17 0;
#X connect 5 1 15 0;
#X connect 7 0 2 0;
#X connect 7 0 3 1;
#X connect 8 0 7 0;
#X connect 9 0 7 0;
#X connect 10 0 13 0;
#X connect 11 0 10 0;
#X connect 12 0 11 0;
#X connect 13 0 8 1;
#X connect 14 0 8 0;
#X connect 15 0 16 0;
#X connect 15 1 9 0;
#X connect 15 1 14 0;
#X connect 15 1 24 0;
#X connect 16 0 7 0;
#X connect 17 0 20 0;
#X connect 18 0 3 0;
#X connect 19 0 18 2;
#X connect 20 0 18 0;
#X connect 21 0 23 0;
#X connect 23 0 22 0;
#X connect 24 0 22 0;
#X connect 25 0 5 0;
#X connect 26 0 12 0;
#X connect 27 0 1 0;
#X restore 140 371 pd synth1;
#N canvas 229 73 546 729 synth2 0;
#X obj 270 374 mtof~;
#X obj 295 298 * 120;
#X obj 269 323 *~ 0;
#X obj 180 600 *~;
#X obj 270 350 +~ 40;
#X obj 177 51 unpack f f;
#X obj 180 692 outlet~;
#X obj 248 244 line~;
#X obj 320 201 pack 0 f;
#X obj 272 177 pack 0 15;
#X obj 373 154 pow 4;
#X obj 373 131 + 0.2;
#X obj 373 108 * 0.8;
#X obj 373 176 * 4000;
#X obj 310 148 del 2;
#X obj 245 78 t f b;
#X obj 245 200 pack \$1 2;
#X obj 153 323 mtof~;
#X obj 176 535 lpf2~;
#X obj 233 507 sig~ 0.1;
#X obj 153 356 blsaw~ 40;
#X obj 280 641 env~;
#X obj 280 691 switch~;
#X obj 280 664 != 0;
#X obj 321 664 1;
#X obj 177 24 r \$0-note2;
#X obj 373 83 r \$0-dec2;
#X obj 295 274 r \$0-env2;
#X connect 0 0 18 1;
#X connect 1 0 2 1;
#X connect 2 0 4 0;
#X connect 3 0 6 0;
#X connect 3 0 21 0;
#X connect 4 0 0 0;
#X connect 5 0 17 0;
#X connect 5 1 15 0;
#X connect 7 0 2 0;
#X connect 7 0 3 1;
#X connect 8 0 7 0;
#X connect 9 0 7 0;
#X connect 10 0 13 0;
#X connect 11 0 10 0;
#X connect 12 0 11 0;
#X connect 13 0 8 1;
#X connect 14 0 8 0;
#X connect 15 0 16 0;
#X connect 15 1 9 0;
#X connect 15 1 14 0;
#X connect 15 1 24 0;
#X connect 16 0 7 0;
#X connect 17 0 20 0;
#X connect 18 0 3 0;
#X connect 19 0 18 2;
#X connect 20 0 18 0;
#X connect 21 0 23 0;
#X connect 23 0 22 0;
#X connect 24 0 22 0;
#X connect 25 0 5 0;
#X connect 26 0 12 0;
#X connect 27 0 1 0;
#X restore 216 373 pd synth2;
#N canvas 229 73 546 729 synth3 0;
#X obj 270 374 mtof~;
#X obj 295 298 * 120;
#X obj 269 323 *~ 0;
#X obj 180 600 *~;
#X obj 270 350 +~ 40;
#X obj 177 51 unpack f f;
#X obj 180 692 outlet~;
#X obj 248 244 line~;
#X obj 320 201 pack 0 f;
#X obj 272 177 pack 0 15;
#X obj 373 154 pow 4;
#X obj 373 131 + 0.2;
#X obj 373 108 * 0.8;
#X obj 373 176 * 4000;
#X obj 310 148 del 2;
#X obj 245 78 t f b;
#X obj 245 200 pack \$1 2;
#X obj 153 323 mtof~;
#X obj 176 535 lpf2~;
#X obj 233 507 sig~ 0.1;
#X obj 153 356 blsaw~ 40;
#X obj 280 641 env~;
#X obj 280 691 switch~;
#X obj 280 664 != 0;
#X obj 321 664 1;
#X obj 177 24 r \$0-note3;
#X obj 373 83 r \$0-dec3;
#X obj 295 274 r \$0-env3;
#X connect 0 0 18 1;
#X connect 1 0 2 1;
#X connect 2 0 4 0;
#X connect 3 0 6 0;
#X connect 3 0 21 0;
#X connect 4 0 0 0;
#X connect 5 0 17 0;
#X connect 5 1 15 0;
#X connect 7 0 2 0;
#X connect 7 0 3 1;
#X connect 8 0 7 0;
#X connect 9 0 7 0;
#X connect 10 0 13 0;
#X connect 11 0 10 0;
#X connect 12 0 11 0;
#X connect 13 0 8 1;
#X connect 14 0 8 0;
#X connect 15 0 16 0;
#X connect 15 1 9 0;
#X connect 15 1 14 0;
#X connect 15 1 24 0;
#X connect 16 0 7 0;
#X connect 17 0 20 0;
#X connect 18 0 3 0;
#X connect 19 0 18 2;
#X connect 20 0 18 0;
#X connect 21 0 23 0;
#X connect 23 0 22 0;
#X connect 24 0 22 0;
#X connect 25 0 5 0;
#X connect 26 0 12 0;
#X connect 27 0 1 0;
#X restore 295 374 pd synth3;
#X msg 446 45 0.5 0.5;
#X obj 446 68 unpack f f;
#X obj 632 215 s \$0-note0;
#X obj 466 93 s \$0-env0;
#X obj 541 93 s \$0-dec0;
#X obj 466 113 s \$0-env1;
#X obj 466 133 s \$0-env2;
#X obj 465 153 s \$0-env3;
#X obj 541 113 s \$0-dec1;
#X obj 541 133 s \$0-dec2;
#X obj 541 153 s \$0-dec3;
#X obj 835 354 + 0.2;
#X obj 835 331 * 0.6;
#X obj 723 354 + 0.2;
#X obj 723 331 * 0.6;
#X obj 723 377 clip 0.2 0.8;
#X obj 835 377 clip 0.2 0.8;
#X obj 835 474 + 0.2;
#X obj 835 451 * 0.6;
#X obj 723 474 + 0.2;
#X obj 723 451 * 0.6;
#X obj 723 497 clip 0.2 0.8;
#X obj 835 497 clip 0.2 0.8;
#X obj 835 594 + 0.2;
#X obj 835 571 * 0.6;
#X obj 723 594 + 0.2;
#X obj 723 571 * 0.6;
#X obj 723 617 clip 0.2 0.8;
#X obj 835 617 clip 0.2 0.8;
#X obj 632 312 r note1;
#X obj 632 335 s \$0-note1;
#X obj 722 310 r env1;
#X obj 835 308 r dec1;
#X obj 723 401 s \$0-env1;
#X obj 835 402 s \$0-dec1;
#X obj 632 432 r note2;
#X obj 632 455 s \$0-note2;
#X obj 722 430 r env2;
#X obj 723 521 s \$0-env2;
#X obj 835 428 r dec2;
#X obj 835 522 s \$0-dec2;
#X obj 632 552 r note3;
#X obj 632 575 s \$0-note3;
#X obj 722 550 r env3;
#X obj 723 641 s \$0-env3;
#X obj 835 548 r dec3;
#X obj 835 642 s \$0-dec3;
#X obj 224 441 r numVoices;
#X msg 224 511 1 \$1;
#X obj 224 534 /;
#X obj 224 557 * 0.5;
#X obj 224 487 change;
#X obj 465 174 s \$0-env4;
#X obj 540 174 s \$0-dec4;
#X obj 540 194 s \$0-dec5;
#X obj 540 214 s \$0-dec6;
#X obj 540 234 s \$0-dec7;
#X obj 465 194 s \$0-env5;
#X obj 465 214 s \$0-env6;
#X obj 464 234 s \$0-env7;
#X obj 224 464 min 8;
#X text 272 464 supports total 8 voices;
#X obj 1145 234 + 0.2;
#X obj 1145 211 * 0.6;
#X obj 1033 234 + 0.2;
#X obj 1033 211 * 0.6;
#X obj 1033 257 clip 0.2 0.8;
#X obj 1145 257 clip 0.2 0.8;
#X obj 1145 354 + 0.2;
#X obj 1145 331 * 0.6;
#X obj 1033 354 + 0.2;
#X obj 1033 331 * 0.6;
#X obj 1033 377 clip 0.2 0.8;
#X obj 1145 377 clip 0.2 0.8;
#X obj 1145 474 + 0.2;
#X obj 1145 451 * 0.6;
#X obj 1033 474 + 0.2;
#X obj 1033 451 * 0.6;
#X obj 1033 497 clip 0.2 0.8;
#X obj 1145 497 clip 0.2 0.8;
#X obj 1145 594 + 0.2;
#X obj 1145 571 * 0.6;
#X obj 1033 594 + 0.2;
#X obj 1033 571 * 0.6;
#X obj 1033 617 clip 0.2 0.8;
#X obj 1145 617 clip 0.2 0.8;
#X obj 942 192 r note4;
#X obj 942 215 s \$0-note4;
#X obj 1032 190 r env4;
#X obj 1033 281 s \$0-env4;
#X obj 1145 188 r dec4;
#X obj 1145 282 s \$0-dec4;
#X obj 942 312 r note5;
#X obj 942 335 s \$0-note5;
#X obj 1032 310 r env5;
#X obj 1033 401 s \$0-env5;
#X obj 1145 308 r dec5;
#X obj 1145 402 s \$0-dec5;
#X obj 942 432 r note6;
#X obj 942 455 s \$0-note6;
#X obj 1032 430 r env6;
#X obj 1033 521 s \$0-env6;
#X obj 1145 428 r dec6;
#X obj 1145 522 s \$0-dec6;
#X obj 942 552 r note7;
#X obj 942 575 s \$0-note7;
#X obj 1032 550 r env7;
#X obj 1033 641 s \$0-env7;
#X obj 1145 548 r dec7;
#X obj 1145 642 s \$0-dec7;
#N canvas 229 73 546 729 synth4 0;
#X obj 270 374 mtof~;
#X obj 295 298 * 120;
#X obj 269 323 *~ 0;
#X obj 180 600 *~;
#X obj 270 350 +~ 40;
#X obj 177 51 unpack f f;
#X obj 180 692 outlet~;
#X obj 248 244 line~;
#X obj 320 201 pack 0 f;
#X obj 272 177 pack 0 15;
#X obj 373 154 pow 4;
#X obj 373 131 + 0.2;
#X obj 373 108 * 0.8;
#X obj 373 176 * 4000;
#X obj 310 148 del 2;
#X obj 245 78 t f b;
#X obj 245 200 pack \$1 2;
#X obj 153 323 mtof~;
#X obj 176 535 lpf2~;
#X obj 233 507 sig~ 0.1;
#X obj 153 356 blsaw~ 40;
#X obj 280 641 env~;
#X obj 280 691 switch~;
#X obj 280 664 != 0;
#X obj 321 664 1;
#X obj 373 83 r \$0-dec4;
#X obj 177 24 r \$0-note4;
#X obj 295 274 r \$0-env4;
#X connect 0 0 18 1;
#X connect 1 0 2 1;
#X connect 2 0 4 0;
#X connect 3 0 6 0;
#X connect 3 0 21 0;
#X connect 4 0 0 0;
#X connect 5 0 17 0;
#X connect 5 1 15 0;
#X connect 7 0 2 0;
#X connect 7 0 3 1;
#X connect 8 0 7 0;
#X connect 9 0 7 0;
#X connect 10 0 13 0;
#X connect 11 0 10 0;
#X connect 12 0 11 0;
#X connect 13 0 8 1;
#X connect 14 0 8 0;
#X connect 15 0 16 0;
#X connect 15 1 9 0;
#X connect 15 1 14 0;
#X connect 15 1 24 0;
#X connect 16 0 7 0;
#X connect 17 0 20 0;
#X connect 18 0 3 0;
#X connect 19 0 18 2;
#X connect 20 0 18 0;
#X connect 21 0 23 0;
#X connect 23 0 22 0;
#X connect 24 0 22 0;
#X connect 25 0 12 0;
#X connect 26 0 5 0;
#X connect 27 0 1 0;
#X restore 97 397 pd synth4;
#N canvas 229 73 546 729 synth5 0;
#X obj 270 374 mtof~;
#X obj 295 298 * 120;
#X obj 269 323 *~ 0;
#X obj 180 600 *~;
#X obj 270 350 +~ 40;
#X obj 177 51 unpack f f;
#X obj 180 692 outlet~;
#X obj 248 244 line~;
#X obj 320 201 pack 0 f;
#X obj 272 177 pack 0 15;
#X obj 373 154 pow 4;
#X obj 373 131 + 0.2;
#X obj 373 108 * 0.8;
#X obj 373 176 * 4000;
#X obj 310 148 del 2;
#X obj 245 78 t f b;
#X obj 245 200 pack \$1 2;
#X obj 153 323 mtof~;
#X obj 176 535 lpf2~;
#X obj 233 507 sig~ 0.1;
#X obj 153 356 blsaw~ 40;
#X obj 280 641 env~;
#X obj 280 691 switch~;
#X obj 280 664 != 0;
#X obj 321 664 1;
#X obj 177 24 r \$0-note5;
#X obj 373 83 r \$0-dec5;
#X obj 295 274 r \$0-env5;
#X connect 0 0 18 1;
#X connect 1 0 2 1;
#X connect 2 0 4 0;
#X connect 3 0 6 0;
#X connect 3 0 21 0;
#X connect 4 0 0 0;
#X connect 5 0 17 0;
#X connect 5 1 15 0;
#X connect 7 0 2 0;
#X connect 7 0 3 1;
#X connect 8 0 7 0;
#X connect 9 0 7 0;
#X connect 10 0 13 0;
#X connect 11 0 10 0;
#X connect 12 0 11 0;
#X connect 13 0 8 1;
#X connect 14 0 8 0;
#X connect 15 0 16 0;
#X connect 15 1 9 0;
#X connect 15 1 14 0;
#X connect 15 1 24 0;
#X connect 16 0 7 0;
#X connect 17 0 20 0;
#X connect 18 0 3 0;
#X connect 19 0 18 2;
#X connect 20 0 18 0;
#X connect 21 0 23 0;
#X connect 23 0 22 0;
#X connect 24 0 22 0;
#X connect 25 0 5 0;
#X connect 26 0 12 0;
#X connect 27 0 1 0;
#X restore 179 397 pd synth5;
#N canvas 229 73 546 729 synth6 0;
#X obj 270 374 mtof~;
#X obj 295 298 * 120;
#X obj 269 323 *~ 0;
#X obj 180 600 *~;
#X obj 270 350 +~ 40;
#X obj 177 51 unpack f f;
#X obj 180 692 outlet~;
#X obj 248 244 line~;
#X obj 320 201 pack 0 f;
#X obj 272 177 pack 0 15;
#X obj 373 154 pow 4;
#X obj 373 131 + 0.2;
#X obj 373 108 * 0.8;
#X obj 373 176 * 4000;
#X obj 310 148 del 2;
#X obj 245 78 t f b;
#X obj 245 200 pack \$1 2;
#X obj 153 323 mtof~;
#X obj 176 535 lpf2~;
#X obj 233 507 sig~ 0.1;
#X obj 153 356 blsaw~ 40;
#X obj 280 641 env~;
#X obj 280 691 switch~;
#X obj 280 664 != 0;
#X obj 321 664 1;
#X obj 177 25 r \$0-note6;
#X obj 373 83 r \$0-dec6;
#X obj 295 274 r \$0-env6;
#X connect 0 0 18 1;
#X connect 1 0 2 1;
#X connect 2 0 4 0;
#X connect 3 0 6 0;
#X connect 3 0 21 0;
#X connect 4 0 0 0;
#X connect 5 0 17 0;
#X connect 5 1 15 0;
#X connect 7 0 2 0;
#X connect 7 0 3 1;
#X connect 8 0 7 0;
#X connect 9 0 7 0;
#X connect 10 0 13 0;
#X connect 11 0 10 0;
#X connect 12 0 11 0;
#X connect 13 0 8 1;
#X connect 14 0 8 0;
#X connect 15 0 16 0;
#X connect 15 1 9 0;
#X connect 15 1 14 0;
#X connect 15 1 24 0;
#X connect 16 0 7 0;
#X connect 17 0 20 0;
#X connect 18 0 3 0;
#X connect 19 0 18 2;
#X connect 20 0 18 0;
#X connect 21 0 23 0;
#X connect 23 0 22 0;
#X connect 24 0 22 0;
#X connect 25 0 5 0;
#X connect 26 0 12 0;
#X connect 27 0 1 0;
#X restore 255 399 pd synth6;
#N canvas 229 73 546 729 synth7 0;
#X obj 270 374 mtof~;
#X obj 295 298 * 120;
#X obj 269 323 *~ 0;
#X obj 180 600 *~;
#X obj 270 350 +~ 40;
#X obj 177 51 unpack f f;
#X obj 180 692 outlet~;
#X obj 248 244 line~;
#X obj 320 201 pack 0 f;
#X obj 272 177 pack 0 15;
#X obj 373 154 pow 4;
#X obj 373 131 + 0.2;
#X obj 373 108 * 0.8;
#X obj 373 176 * 4000;
#X obj 310 148 del 2;
#X obj 245 78 t f b;
#X obj 245 200 pack \$1 2;
#X obj 153 323 mtof~;
#X obj 176 535 lpf2~;
#X obj 233 507 sig~ 0.1;
#X obj 153 356 blsaw~ 40;
#X obj 280 641 env~;
#X obj 280 691 switch~;
#X obj 280 664 != 0;
#X obj 321 664 1;
#X obj 177 24 r \$0-note7;
#X obj 373 83 r \$0-dec7;
#X obj 295 274 r \$0-env7;
#X connect 0 0 18 1;
#X connect 1 0 2 1;
#X connect 2 0 4 0;
#X connect 3 0 6 0;
#X connect 3 0 21 0;
#X connect 4 0 0 0;
#X connect 5 0 17 0;
#X connect 5 1 15 0;
#X connect 7 0 2 0;
#X connect 7 0 3 1;
#X connect 8 0 7 0;
#X connect 9 0 7 0;
#X connect 10 0 13 0;
#X connect 11 0 10 0;
#X connect 12 0 11 0;
#X connect 13 0 8 1;
#X connect 14 0 8 0;
#X connect 15 0 16 0;
#X connect 15 1 9 0;
#X connect 15 1 14 0;
#X connect 15 1 24 0;
#X connect 16 0 7 0;
#X connect 17 0 20 0;
#X connect 18 0 3 0;
#X connect 19 0 18 2;
#X connect 20 0 18 0;
#X connect 21 0 23 0;
#X connect 23 0 22 0;
#X connect 24 0 22 0;
#X connect 25 0 5 0;
#X connect 26 0 12 0;
#X connect 27 0 1 0;
#X restore 334 400 pd synth7;
#X connect 1 0 2 0;
#X connect 2 0 5 0;
#X connect 5 0 0 0;
#X connect 5 0 0 1;
#X connect 6 0 12 0;
#X connect 7 0 6 0;
#X connect 8 0 11 0;
#X connect 9 0 8 0;
#X connect 10 0 22 0;
#X connect 11 0 16 0;
#X connect 12 0 17 0;
#X connect 13 0 24 0;
#X connect 14 0 9 0;
#X connect 15 0 7 0;
#X connect 18 0 1 0;
#X connect 19 0 1 0;
#X connect 20 0 1 0;
#X connect 21 0 1 0;
#X connect 22 0 23 0;
#X connect 23 0 25 0;
#X connect 23 0 27 0;
#X connect 23 0 28 0;
#X connect 23 0 29 0;
#X connect 23 0 74 0;
#X connect 23 0 79 0;
#X connect 23 0 80 0;
#X connect 23 0 81 0;
#X connect 23 1 26 0;
#X connect 23 1 30 0;
#X connect 23 1 31 0;
#X connect 23 1 32 0;
#X connect 23 1 75 0;
#X connect 23 1 76 0;
#X connect 23 1 77 0;
#X connect 23 1 78 0;
#X connect 33 0 38 0;
#X connect 34 0 33 0;
#X connect 35 0 37 0;
#X connect 36 0 35 0;
#X connect 37 0 55 0;
#X connect 38 0 56 0;
#X connect 39 0 44 0;
#X connect 40 0 39 0;
#X connect 41 0 43 0;
#X connect 42 0 41 0;
#X connect 43 0 60 0;
#X connect 44 0 62 0;
#X connect 45 0 50 0;
#X connect 46 0 45 0;
#X connect 47 0 49 0;
#X connect 48 0 47 0;
#X connect 49 0 66 0;
#X connect 50 0 68 0;
#X connect 51 0 52 0;
#X connect 53 0 36 0;
#X connect 54 0 34 0;
#X connect 57 0 58 0;
#X connect 59 0 42 0;
#X connect 61 0 40 0;
#X connect 63 0 64 0;
#X connect 65 0 48 0;
#X connect 67 0 46 0;
#X connect 69 0 82 0;
#X connect 70 0 71 0;
#X connect 71 0 72 0;
#X connect 72 0 5 1;
#X connect 73 0 70 0;
#X connect 82 0 73 0;
#X connect 84 0 89 0;
#X connect 85 0 84 0;
#X connect 86 0 88 0;
#X connect 87 0 86 0;
#X connect 88 0 111 0;
#X connect 89 0 113 0;
#X connect 90 0 95 0;
#X connect 91 0 90 0;
#X connect 92 0 94 0;
#X connect 93 0 92 0;
#X connect 94 0 117 0;
#X connect 95 0 119 0;
#X connect 96 0 101 0;
#X connect 97 0 96 0;
#X connect 98 0 100 0;
#X connect 99 0 98 0;
#X connect 100 0 123 0;
#X connect 101 0 125 0;
#X connect 102 0 107 0;
#X connect 103 0 102 0;
#X connect 104 0 106 0;
#X connect 105 0 104 0;
#X connect 106 0 129 0;
#X connect 107 0 131 0;
#X connect 108 0 109 0;
#X connect 110 0 87 0;
#X connect 112 0 85 0;
#X connect 114 0 115 0;
#X connect 116 0 93 0;
#X connect 118 0 91 0;
#X connect 120 0 121 0;
#X connect 122 0 99 0;
#X connect 124 0 97 0;
#X connect 126 0 127 0;
#X connect 128 0 105 0;
#X connect 130 0 103 0;
#X connect 132 0 1 0;
#X connect 133 0 1 0;
#X connect 134 0 1 0;
#X connect 135 0 1 0;
