#N canvas 108 147 928 701 12;
#X obj 124 331 r \$0-note;
#X obj 125 521 dac~ 1 2;
#X obj 569 368 hsl 128 15 0 1 0 0 empty empty empty -2 -8 0 10 -262144
-1 -1 6350 1;
#X floatatom 566 388 12 0 0 0 - - -;
#X obj 730 367 hsl 128 15 0 1 0 0 empty empty empty -2 -8 0 10 -262144
-1 -1 6350 1;
#X floatatom 727 387 12 0 0 0 - - -;
#N canvas 127 336 1163 542 delay 0;
#X obj 313 390 +~;
#X obj 313 419 delwrite~ \$0-dl 4000;
#X obj 188 37 inlet~;
#X obj 191 431 outlet~;
#X obj 356 326 delread~ \$0-dl 348;
#X text 494 327 tempo * 2;
#X text 365 276 delay amount;
#X text 417 363 feedback;
#X obj 308 275 *~ 0.4;
#X obj 356 362 *~ 0.3;
#X connect 0 0 1 0;
#X connect 2 0 3 0;
#X connect 2 0 8 0;
#X connect 4 0 3 0;
#X connect 4 0 9 0;
#X connect 8 0 0 0;
#X connect 9 0 0 1;
#X restore 124 385 pd delay;
#N canvas 303 225 986 653 reverb 0;
#X obj 691 281 * 0.28;
#X obj 692 304 + 0.7;
#X obj 691 237 - 1;
#X obj 691 258 abs;
#X obj 519 288 * 44100;
#X obj 467 195 * 0.9;
#X obj 467 219 + 0.1;
#X obj 467 243 pow 4;
#X obj 690 215 pow 2;
#X obj 690 192 -;
#N canvas 0 22 522 372 comb-1 0;
#X obj 154 146 lop~ 20000;
#X obj 154 169 *~ 0.5;
#X obj 72 37 inlet~;
#X obj 67 234 outlet~;
#X obj 216 112 inlet;
#X obj 259 112 inlet;
#X obj 155 61 delread~ \$0-rev1 25.3061;
#X obj 152 208 delwrite~ \$0-rev1 26;
#X connect 0 0 1 0;
#X connect 1 0 3 0;
#X connect 1 0 7 0;
#X connect 2 0 7 0;
#X connect 4 0 0 1;
#X connect 5 0 1 1;
#X connect 6 0 0 0;
#X restore 159 373 pd comb-1;
#N canvas 549 236 494 344 comb-2 0;
#X obj 174 127 lop~ 20000;
#X obj 174 150 *~ 0.5;
#X obj 90 36 inlet~;
#X obj 88 231 outlet~;
#X obj 236 93 inlet;
#X obj 278 93 inlet;
#X obj 169 64 delread~ \$0-rev2 26.9388;
#X obj 171 202 delwrite~ \$0-rev2 27;
#X connect 0 0 1 0;
#X connect 1 0 3 0;
#X connect 1 0 7 0;
#X connect 2 0 7 0;
#X connect 4 0 0 1;
#X connect 5 0 1 1;
#X connect 6 0 0 0;
#X restore 221 373 pd comb-2;
#N canvas 400 75 490 340 comb-3 0;
#X obj 141 136 lop~ 20000;
#X obj 139 165 *~ 0.5;
#X obj 57 43 inlet~;
#X obj 57 248 outlet~;
#X obj 203 102 inlet;
#X obj 243 102 inlet;
#X obj 117 67 delread~ \$0-rev3 28.9569;
#X obj 137 210 delwrite~ \$0-rev3 29;
#X connect 0 0 1 0;
#X connect 1 0 3 0;
#X connect 1 0 7 0;
#X connect 2 0 7 0;
#X connect 4 0 0 1;
#X connect 5 0 1 1;
#X connect 6 0 0 0;
#X restore 282 373 pd comb-3;
#N canvas 746 118 494 344 comb-4 0;
#X obj 182 137 lop~ 20000;
#X obj 182 160 *~ 0.5;
#X obj 90 36 inlet~;
#X obj 88 231 outlet~;
#X obj 244 103 inlet;
#X obj 281 103 inlet;
#X obj 175 73 delread~ \$0-rev4 30.7483;
#X obj 172 206 delwrite~ \$0-rev4 31;
#X connect 0 0 1 0;
#X connect 1 0 3 0;
#X connect 1 0 7 0;
#X connect 2 0 7 0;
#X connect 4 0 0 1;
#X connect 5 0 1 1;
#X connect 6 0 0 0;
#X restore 344 373 pd comb-4;
#N canvas 805 59 474 324 comb-5 0;
#X obj 134 129 lop~ 20000;
#X obj 134 152 *~ 0.5;
#X obj 90 36 inlet~;
#X obj 88 231 outlet~;
#X obj 196 98 inlet;
#X obj 234 97 inlet;
#X obj 135 61 delread~ \$0-rev5 34.2449;
#X obj 132 203 delwrite~ \$0-rev5 35;
#X connect 0 0 1 0;
#X connect 1 0 3 0;
#X connect 1 0 7 0;
#X connect 2 0 7 0;
#X connect 4 0 0 1;
#X connect 5 0 1 1;
#X connect 6 0 0 0;
#X restore 406 373 pd comb-5;
#N canvas 702 107 474 324 comb-6 0;
#X obj 176 121 lop~ 20000;
#X obj 176 144 *~ 0.5;
#X obj 90 36 inlet~;
#X obj 88 231 outlet~;
#X obj 235 95 inlet;
#X obj 277 95 inlet;
#X obj 238 54 delread~ \$0-rev6 33.8095;
#X obj 177 196 delwrite~ \$0-rev6 34;
#X connect 0 0 1 0;
#X connect 1 0 3 0;
#X connect 1 0 7 0;
#X connect 2 0 7 0;
#X connect 4 0 0 1;
#X connect 5 0 1 1;
#X connect 6 0 0 0;
#X restore 468 373 pd comb-6;
#N canvas 742 153 474 324 comb-7 0;
#X obj 131 135 lop~ 20000;
#X obj 131 158 *~ 0.5;
#X obj 80 50 inlet~;
#X obj 88 231 outlet~;
#X obj 194 105 inlet;
#X obj 232 102 inlet;
#X obj 194 70 delread~ \$0-rev7 35.7596;
#X obj 129 207 delwrite~ \$0-rev7 36;
#X connect 0 0 1 0;
#X connect 1 0 3 0;
#X connect 1 0 7 0;
#X connect 2 0 7 0;
#X connect 4 0 0 1;
#X connect 5 0 1 1;
#X connect 6 0 0 0;
#X restore 529 373 pd comb-7;
#N canvas 731 107 478 328 comb-8 0;
#X obj 140 134 lop~ 20000;
#X obj 140 157 *~ 0.5;
#X obj 90 36 inlet~;
#X obj 88 231 outlet~;
#X obj 201 104 inlet;
#X obj 243 104 inlet;
#X obj 204 67 delread~ \$0-rev8 36.6667;
#X obj 140 205 delwrite~ \$0-rev8 26;
#X connect 0 0 1 0;
#X connect 1 0 3 0;
#X connect 1 0 7 0;
#X connect 2 0 7 0;
#X connect 4 0 0 1;
#X connect 5 0 1 1;
#X connect 6 0 0 0;
#X restore 591 373 pd comb-8;
#N canvas 588 127 648 562 allpass-1 0;
#X obj 186 65 inlet~;
#X obj 245 422 *~ 0.5;
#X obj 175 490 outlet~;
#X obj 168 391 *~ -1;
#X obj 437 474 delwrite~ \$0-reva-1 13;
#X obj 213 390 delread~ \$0-reva-1 12.6077;
#X connect 0 0 3 0;
#X connect 0 0 4 0;
#X connect 1 0 4 0;
#X connect 3 0 2 0;
#X connect 5 0 1 0;
#X connect 5 0 2 0;
#X restore 159 435 pd allpass-1;
#N canvas 0 22 640 554 allpass-2 0;
#X obj 186 65 inlet~;
#X obj 245 422 *~ 0.5;
#X obj 175 490 outlet~;
#X obj 168 391 *~ -1;
#X obj 213 389 delread~ \$0-reva-2 10;
#X obj 439 474 delwrite~ \$0-reva-2 11;
#X connect 0 0 3 0;
#X connect 0 0 5 0;
#X connect 1 0 5 0;
#X connect 3 0 2 0;
#X connect 4 0 1 0;
#X connect 4 0 2 0;
#X restore 159 455 pd allpass-2;
#N canvas 0 22 644 558 allpass-3 0;
#X obj 186 65 inlet~;
#X obj 245 422 *~ 0.5;
#X obj 175 490 outlet~;
#X obj 168 391 *~ -1;
#X obj 213 389 delread~ \$0-reva-3 7.77324;
#X obj 437 474 delwrite~ \$0-reva-3 8;
#X connect 0 0 3 0;
#X connect 0 0 5 0;
#X connect 1 0 5 0;
#X connect 3 0 2 0;
#X connect 4 0 1 0;
#X connect 4 0 2 0;
#X restore 159 476 pd allpass-3;
#N canvas 0 22 636 550 allpass-4 0;
#X obj 186 65 inlet~;
#X obj 245 422 *~ 0.5;
#X obj 175 490 outlet~;
#X obj 168 391 *~ -1;
#X obj 214 389 delread~ \$0-reva-4 5.10204;
#X obj 437 474 delwrite~ \$0-reva-4 6;
#X connect 0 0 3 0;
#X connect 0 0 5 0;
#X connect 1 0 5 0;
#X connect 3 0 2 0;
#X connect 4 0 1 0;
#X connect 4 0 2 0;
#X restore 159 496 pd allpass-4;
#X obj 159 415 *~ 0.25;
#X msg 690 168 1 \$1;
#X obj 159 319 *~ 0.1;
#X obj 558 264 samplerate~;
#X obj 481 17 loadbang;
#X obj 467 172 -;
#X msg 467 148 1 \$1;
#X obj 157 288 *~;
#X obj 826 197 line~;
#X msg 828 173 \$1 10;
#X obj 123 577 outlet~;
#X obj 131 207 inlet~;
#X obj 482 96 unpack f f f;
#X text 510 147 brigntness;
#X text 691 141 roomsize;
#X text 834 146 reverb amount;
#X obj 481 40 t b b;
#X msg 481 70 0.5 0.5 0.5;
#X connect 0 0 1 0;
#X connect 1 0 17 2;
#X connect 1 0 16 2;
#X connect 1 0 10 2;
#X connect 1 0 11 2;
#X connect 1 0 12 2;
#X connect 1 0 13 2;
#X connect 1 0 14 2;
#X connect 1 0 15 2;
#X connect 2 0 3 0;
#X connect 3 0 0 0;
#X connect 4 0 10 1;
#X connect 4 0 11 1;
#X connect 4 0 12 1;
#X connect 4 0 13 1;
#X connect 4 0 14 1;
#X connect 4 0 15 1;
#X connect 4 0 16 1;
#X connect 4 0 17 1;
#X connect 5 0 6 0;
#X connect 6 0 7 0;
#X connect 7 0 4 0;
#X connect 8 0 2 0;
#X connect 9 0 8 0;
#X connect 10 0 22 0;
#X connect 11 0 22 0;
#X connect 12 0 22 0;
#X connect 13 0 22 0;
#X connect 14 0 22 0;
#X connect 15 0 22 0;
#X connect 16 0 22 0;
#X connect 17 0 22 0;
#X connect 18 0 19 0;
#X connect 19 0 20 0;
#X connect 20 0 21 0;
#X connect 21 0 32 0;
#X connect 22 0 18 0;
#X connect 23 0 9 0;
#X connect 24 0 10 0;
#X connect 24 0 11 0;
#X connect 24 0 12 0;
#X connect 24 0 13 0;
#X connect 24 0 14 0;
#X connect 24 0 15 0;
#X connect 24 0 16 0;
#X connect 24 0 17 0;
#X connect 25 0 4 1;
#X connect 26 0 38 0;
#X connect 27 0 5 0;
#X connect 28 0 27 0;
#X connect 29 0 24 0;
#X connect 30 0 29 1;
#X connect 31 0 30 0;
#X connect 33 0 29 0;
#X connect 33 0 32 0;
#X connect 34 0 28 0;
#X connect 34 1 23 0;
#X connect 34 2 31 0;
#X connect 38 0 39 0;
#X connect 38 1 25 0;
#X connect 39 0 34 0;
#X restore 123 419 pd reverb;
#X obj 375 432 sel 0 1 2 3 4 5 6 7;
#X obj 376 383 f;
#X obj 415 381 + 1;
#X obj 377 321 tgl 15 0 empty empty empty 17 7 0 10 -262144 -1 -1 0
1;
#X obj 367 469 46;
#X obj 397 469 50;
#X obj 427 469 51;
#X obj 457 469 55;
#X obj 487 470 58;
#X obj 517 469 62;
#X obj 547 469 63;
#X obj 337 469 39;
#X obj 374 347 metro 174;
#N canvas 229 73 546 729 synth 0;
#X obj 270 374 mtof~;
#X obj 295 298 * 120;
#X obj 269 323 *~ 0;
#X obj 180 600 *~;
#X obj 177 24 inlet note;
#X obj 270 350 +~ 40;
#X obj 177 51 unpack f f;
#X obj 179 629 outlet~;
#X obj 248 244 line~;
#X obj 320 201 pack 0 f;
#X obj 272 177 pack 0 15;
#X obj 373 154 pow 4;
#X obj 373 131 + 0.2;
#X obj 373 108 * 0.8;
#X obj 373 176 * 4000;
#X obj 310 148 del 2;
#X obj 245 78 t f b;
#X obj 245 200 pack \$1 2;
#X obj 153 323 mtof~;
#X obj 295 274 r \$0-env;
#X obj 176 535 lpf2~;
#X obj 233 507 sig~ 0.1;
#X obj 373 83 r \$0-dec;
#X obj 153 356 blsaw~ 40;
#X connect 0 0 20 1;
#X connect 1 0 2 1;
#X connect 2 0 5 0;
#X connect 3 0 7 0;
#X connect 4 0 6 0;
#X connect 5 0 0 0;
#X connect 6 0 18 0;
#X connect 6 1 16 0;
#X connect 8 0 2 0;
#X connect 8 0 3 1;
#X connect 9 0 8 0;
#X connect 10 0 8 0;
#X connect 11 0 14 0;
#X connect 12 0 11 0;
#X connect 13 0 12 0;
#X connect 14 0 9 1;
#X connect 15 0 9 0;
#X connect 16 0 17 0;
#X connect 16 1 10 0;
#X connect 16 1 15 0;
#X connect 17 0 8 0;
#X connect 18 0 23 0;
#X connect 19 0 1 0;
#X connect 20 0 3 0;
#X connect 21 0 20 2;
#X connect 22 0 13 0;
#X connect 23 0 20 0;
#X restore 124 356 pd synth;
#X obj 408 578 s \$0-note;
#X obj 406 549 pack f 1;
#X floatatom 484 378 5 0 0 0 - - -;
#X text 73 63 delay tempo in ms: 174;
#X obj 376 406 % 8;
#X text 430 296 these are just for testing;
#X obj 394 174 s \$0-note;
#X obj 566 410 s \$0-env;
#X obj 394 151 r note;
#X obj 477 242 s \$0-env;
#X obj 476 151 r env;
#X text 430 116 receivers from JS;
#X obj 406 526 + 12;
#X obj 589 149 r dec;
#X obj 592 244 s \$0-dec;
#X obj 123 456 *~ 0.5;
#X obj 727 409 s \$0-dec;
#X obj 589 195 + 0.2;
#X obj 589 172 * 0.6;
#X obj 477 195 + 0.2;
#X obj 477 172 * 0.6;
#X obj 709 25 loadbang;
#X msg 709 48 0.5 0.5;
#X obj 709 71 unpack f f;
#X obj 477 218 clip 0.2 0.8;
#X obj 589 218 clip 0.2 0.8;
#X connect 0 0 21 0;
#X connect 2 0 3 0;
#X connect 3 0 29 0;
#X connect 4 0 5 0;
#X connect 5 0 38 0;
#X connect 6 0 7 0;
#X connect 7 0 37 0;
#X connect 8 0 19 0;
#X connect 8 1 12 0;
#X connect 8 2 13 0;
#X connect 8 3 14 0;
#X connect 8 4 15 0;
#X connect 8 5 16 0;
#X connect 8 6 17 0;
#X connect 8 7 18 0;
#X connect 9 0 10 0;
#X connect 9 0 26 0;
#X connect 10 0 9 1;
#X connect 11 0 20 0;
#X connect 12 0 34 0;
#X connect 13 0 34 0;
#X connect 14 0 34 0;
#X connect 15 0 34 0;
#X connect 16 0 34 0;
#X connect 17 0 34 0;
#X connect 18 0 34 0;
#X connect 19 0 34 0;
#X connect 20 0 9 0;
#X connect 21 0 6 0;
#X connect 23 0 22 0;
#X connect 24 0 26 1;
#X connect 26 0 8 0;
#X connect 30 0 28 0;
#X connect 32 0 42 0;
#X connect 34 0 23 0;
#X connect 35 0 40 0;
#X connect 37 0 1 0;
#X connect 37 0 1 1;
#X connect 39 0 47 0;
#X connect 40 0 39 0;
#X connect 41 0 46 0;
#X connect 42 0 41 0;
#X connect 43 0 44 0;
#X connect 44 0 45 0;
#X connect 45 0 42 0;
#X connect 45 0 2 0;
#X connect 45 1 40 0;
#X connect 45 1 4 0;
#X connect 46 0 31 0;
#X connect 47 0 36 0;
